<?xml version="1.0" encoding="UTF-8" standalone="no"?>
<!-- Created with Inkscape (http://www.inkscape.org/) -->

<svg
   version="1.1"
   id="svg59"
   width="3166.0696"
   height="170.4297"
   viewBox="0 0 3166.0696 170.4297"
   sodipodi:docname="detal_frankowka_w_dol.svg"
   inkscape:version="1.2.1 (9c6d41e410, 2022-07-14)"
   xmlns:inkscape="http://www.inkscape.org/namespaces/inkscape"
   xmlns:sodipodi="http://sodipodi.sourceforge.net/DTD/sodipodi-0.dtd"
   xmlns="http://www.w3.org/2000/svg"
   xmlns:svg="http://www.w3.org/2000/svg">
  <defs
     id="defs63" />
  <sodipodi:namedview
     id="namedview61"
     pagecolor="#ffffff"
     bordercolor="#000000"
     borderopacity="0.25"
     inkscape:showpageshadow="2"
     inkscape:pageopacity="0.0"
     inkscape:pagecheckerboard="0"
     inkscape:deskcolor="#d1d1d1"
     showgrid="false"
     showguides="true"
     inkscape:lockguides="false"
     inkscape:zoom="0.25"
     inkscape:cx="3004"
     inkscape:cy="-4"
     inkscape:window-width="1278"
     inkscape:window-height="476"
     inkscape:window-x="-8"
     inkscape:window-y="50"
     inkscape:window-maximized="0"
     inkscape:current-layer="g65">
    <sodipodi:guide
       position="3485.754,2175.9898"
       orientation="1,0"
       id="guide1009"
       inkscape:locked="false" />
    <sodipodi:guide
       position="3484.0776,2264.0021"
       orientation="0,-1"
       id="guide1011"
       inkscape:locked="false" />
    <sodipodi:guide
       position="3679.3812,2227.9589"
       orientation="1,0"
       id="guide1013"
       inkscape:locked="false" />
    <sodipodi:guide
       position="3487.0114,2107.6754"
       orientation="0,-1"
       id="guide1015"
       inkscape:locked="false" />
  </sodipodi:namedview>
  <g
     inkscape:groupmode="layer"
     inkscape:label="Image"
     id="g65"
     transform="translate(1731.375,-1041.9004)">
    <path
       id="path229"
       style="fill-opacity:0.77777779;stroke-width:0.480856;fill:#ffffff"
       inkscape:highlight-color="#d78551"
       d="m -55.23061,1041.9004 0.0048,75.1591 c 1.632506,-6.382 4.199749,-11.5741 8.244086,-15.5442 2.945629,-1.4918 7.60902,-0.9347 10.817389,1.5355 1.558166,3.5765 3.318869,7.9846 -0.120214,12.8103 3.251789,-0.2179 6.544067,-0.7067 8.751197,6.1272 -1.350148,3.7177 -4.535195,6.5579 -9.550428,5.7722 l -10.652118,-2.8166 c -2.683274,9.7595 -0.521441,15.9864 3.55194,20.5021 l 16.844055,11.1846 c 3.04103,-3.5669 5.5875,-7.2134 11.270066,-4.1765 1.897843,3.9462 2.025222,6.4005 -2.495355,11.1489 -4.427724,2.1774 -8.382381,0.8064 -12.280634,-0.987 0.125215,5.3448 0.14671,10.6896 2.097158,16.0344 8.061313,5.7393 10.363989,10.2722 12.925847,15.4945 l 3.632724,8.0327 c 1.056104,3.5748 2.2413666,7.1062 4.8827576,10.1525 2.199388,-2.3267 3.2590027,-4.8819 4.13142,-7.474 1.0127312,-4.0651 1.7182914,-5.9747 2.47472624,-8.2459 1.95992166,-4.1243 2.54589296,-8.7661 6.31215076,-12.1162 3.2989137,-3.1616 6.2387724,-6.3232 9.2902854,-9.4847 2.616002,-3.7072 2.044023,-8.5387 1.726226,-12.9794 -4.306885,2.0348 -8.3292948,3.8344 -12.9211346,1.282 -5.4975323,-7.8758 -1.6027416,-10.9786 -0.1427661,-10.8127 1.9950722,-0.9534 6.3634581,1.6315 10.6689957,1.3899 7.975385,-4.2587 13.388623,-10.7949 19.027623,-17.1304 1.291868,-5.4593 -0.887708,-9.0242 -2.401444,-12.9531 -6.792526,3.0173 -12.948831,5.4356 -17.650835,1.3975 -3.4430263,-7.0466 1.917462,-10.1615 7.812999,-12.6291 -2.39625,-14.328 5.562159,-13.189 8.739946,-11.0747 5.077696,3.8031 6.638507,10.9098 8.110697,15.5734 l 0.0048,-75.1723 z m 47.1840113,85.3999 a 7.3931635,7.6335916 0 0 1 7.39316356,7.6335 7.3931635,7.6335916 0 0 1 -7.39316356,7.6336 7.3931635,7.6335916 0 0 1 -7.3931633,-7.6336 7.3931635,7.6335916 0 0 1 7.3931633,-7.6335 z" />
    <path
       id="path2606"
       style="fill-opacity:0.77777779;stroke-width:0.480856;fill:#ffffff"
       inkscape:highlight-color="#d78551"
       d="m 37.865485,1041.9004 0.0048,75.1591 c 1.632507,-6.382 4.19975,-11.5741 8.244087,-15.5442 2.945628,-1.4918 7.609019,-0.9347 10.817388,1.5355 1.558166,3.5765 3.318869,7.9845 -0.120214,12.8103 3.25179,-0.218 6.544068,-0.7066 8.751197,6.1272 -1.350148,3.7177 -4.535195,6.5579 -9.550428,5.7721 l -10.652118,-2.8165 c -2.683274,9.7595 -0.521441,15.9864 3.55194,20.5021 l 16.844055,11.1846 c 3.04103,-3.5669 5.5875,-7.2134 11.270066,-4.1765 1.897843,3.9462 2.025222,6.4005 -2.495355,11.1489 -4.427723,2.1774 -8.382381,0.8064 -12.280633,-0.987 0.125214,5.3448 0.146709,10.6896 2.097158,16.0345 8.061313,5.7392 10.363989,10.2721 12.925846,15.4944 l 3.632724,8.0327 c 1.056104,3.5748 2.241367,7.1062 4.882758,10.1525 2.199388,-2.3267 3.259002,-4.8819 4.13142,-7.4739 1.012731,-4.0652 1.718291,-5.9748 2.474726,-8.246 1.959922,-4.1243 2.545893,-8.7661 6.312151,-12.1162 3.298917,-3.1616 6.238767,-6.3232 9.290287,-9.4847 2.616,-3.7072 2.04402,-8.5387 1.72622,-12.9794 -4.30688,2.0348 -8.32929,3.8344 -12.92113,1.282 -5.497533,-7.8758 -1.602742,-10.9786 -0.142767,-10.8127 1.995073,-0.9534 6.363457,1.6315 10.668997,1.39 7.97538,-4.2588 13.38862,-10.795 19.02762,-17.1306 1.29187,-5.4592 -0.88771,-9.0241 -2.40144,-12.953 -6.79253,3.0173 -12.94883,5.4356 -17.65084,1.3975 -3.44302,-7.0466 1.91746,-10.1615 7.813,-12.6291 -2.39625,-14.328 5.56216,-13.189 8.73995,-11.0747 5.07769,3.8031 6.6385,10.9098 8.11069,15.5734 l 0.005,-75.1723 z m 47.184012,85.3999 a 7.3931635,7.6335916 0 0 1 7.393163,7.6335 7.3931635,7.6335916 0 0 1 -7.393163,7.6336 7.3931635,7.6335916 0 0 1 -7.393164,-7.6336 7.3931635,7.6335916 0 0 1 7.393164,-7.6335 z" />
    <path
       id="path2608"
       style="fill-opacity:0.77777779;stroke-width:0.480856;fill:#ffffff"
       inkscape:highlight-color="#d78551"
       d="m 130.959,1041.9004 0.005,75.1591 c 1.6325,-6.382 4.19975,-11.5741 8.24408,-15.5442 2.94563,-1.4918 7.60902,-0.9347 10.81739,1.5355 1.55817,3.5765 3.31887,7.9845 -0.12021,12.8103 3.25179,-0.218 6.54407,-0.7066 8.7512,6.1272 -1.35015,3.7177 -4.5352,6.5579 -9.55043,5.7721 l -10.65212,-2.8165 c -2.68327,9.7595 -0.52144,15.9864 3.55194,20.5021 l 16.84405,11.1846 c 3.04103,-3.5669 5.5875,-7.2134 11.27007,-4.1765 1.89784,3.9462 2.02522,6.4005 -2.49535,11.1489 -4.42773,2.1774 -8.38239,0.8064 -12.28064,-0.987 0.12522,5.3448 0.14671,10.6896 2.09716,16.0345 8.06131,5.7392 10.36399,10.2721 12.92585,15.4944 l 3.63272,8.0327 c 1.0561,3.5748 2.24137,7.1062 4.88276,10.1525 2.19939,-2.3267 3.259,-4.8819 4.13142,-7.4739 1.01273,-4.0652 1.71829,-5.9748 2.47472,-8.246 1.95993,-4.1243 2.5459,-8.7661 6.31215,-12.1162 3.29892,-3.1616 6.23878,-6.3232 9.29029,-9.4847 2.616,-3.7072 2.04402,-8.5387 1.72623,-12.9794 -4.30689,2.0348 -8.3293,3.8344 -12.92114,1.282 -5.49753,-7.8758 -1.60274,-10.9786 -0.14276,-10.8127 1.99507,-0.9534 6.36345,1.6315 10.66899,1.39 7.97539,-4.2588 13.38862,-10.795 19.02762,-17.1306 1.29187,-5.4592 -0.8877,-9.0241 -2.40144,-12.953 -6.79253,3.0173 -12.94883,5.4356 -17.65083,1.3975 -3.44303,-7.0466 1.91746,-10.1615 7.81299,-12.6291 -2.39625,-14.328 5.56216,-13.189 8.73995,-11.0747 5.0777,3.8031 6.63851,10.9098 8.1107,15.5734 l 0.005,-75.1723 z m 47.18401,85.3999 a 7.3931635,7.6335916 0 0 1 7.39316,7.6335 7.3931635,7.6335916 0 0 1 -7.39316,7.6336 7.3931635,7.6335916 0 0 1 -7.39316,-7.6336 7.3931635,7.6335916 0 0 1 7.39316,-7.6335 z" />
    <path
       id="path2610"
       style="fill-opacity:0.77777779;stroke-width:0.480856;fill:#ffffff"
       inkscape:highlight-color="#d78551"
       d="m 224.05511,1041.9004 0.005,75.1591 c 1.6325,-6.382 4.19975,-11.5741 8.24408,-15.5442 2.94563,-1.4918 7.60902,-0.9347 10.81739,1.5355 1.55817,3.5765 3.31887,7.9845 -0.12021,12.8103 3.25179,-0.218 6.54407,-0.7066 8.7512,6.1272 -1.35015,3.7177 -4.5352,6.5579 -9.55043,5.7721 l -10.65212,-2.8165 c -2.68328,9.7595 -0.52144,15.9864 3.55194,20.5021 l 16.84405,11.1846 c 3.04103,-3.5669 5.5875,-7.2134 11.27007,-4.1765 1.89784,3.9462 2.02522,6.4005 -2.49536,11.1489 -4.42772,2.1774 -8.38238,0.8064 -12.28063,-0.987 0.12522,5.3448 0.14671,10.6896 2.09716,16.0345 8.06131,5.7392 10.36399,10.2721 12.92585,15.4944 l 3.63272,8.0327 c 1.0561,3.5748 2.24137,7.1062 4.88276,10.1525 2.19939,-2.3267 3.259,-4.8819 4.13142,-7.4739 1.01273,-4.0652 1.71829,-5.9748 2.47472,-8.246 1.95993,-4.1243 2.5459,-8.7661 6.31215,-12.1162 3.29892,-3.1616 6.23878,-6.3232 9.29029,-9.4847 2.616,-3.7072 2.04402,-8.5387 1.72623,-12.9794 -4.30689,2.0348 -8.3293,3.8344 -12.92114,1.282 -5.49753,-7.8758 -1.60274,-10.9786 -0.14276,-10.8127 1.99507,-0.9534 6.36345,1.6315 10.66899,1.39 7.97539,-4.2588 13.38862,-10.795 19.02762,-17.1306 1.29187,-5.4592 -0.8877,-9.0241 -2.40144,-12.953 -6.79253,3.0173 -12.94883,5.4356 -17.65084,1.3975 -3.44302,-7.0466 1.91747,-10.1615 7.813,-12.6291 -2.39625,-14.328 5.56216,-13.189 8.73995,-11.0747 5.0777,3.8031 6.63851,10.9098 8.1107,15.5734 l 0.005,-75.1723 z m 47.18401,85.3999 a 7.3931635,7.6335916 0 0 1 7.39316,7.6335 7.3931635,7.6335916 0 0 1 -7.39316,7.6336 7.3931635,7.6335916 0 0 1 -7.39316,-7.6336 7.3931635,7.6335916 0 0 1 7.39316,-7.6335 z" />
    <path
       id="path2612"
       style="fill-opacity:0.77777779;stroke-width:0.480856;fill:#ffffff"
       inkscape:highlight-color="#d78551"
       d="m 317.17516,1041.9004 0.005,75.1591 c 1.63251,-6.382 4.19975,-11.5741 8.24409,-15.5442 2.94563,-1.4918 7.60902,-0.9347 10.81739,1.5355 1.55816,3.5765 3.31887,7.9845 -0.12022,12.8103 3.25179,-0.218 6.54407,-0.7066 8.7512,6.1272 -1.35015,3.7177 -4.53519,6.5579 -9.55043,5.7721 l -10.65212,-2.8165 c -2.68327,9.7595 -0.52144,15.9864 3.55194,20.5021 l 16.84406,11.1846 c 3.04103,-3.5669 5.5875,-7.2134 11.27007,-4.1765 1.89784,3.9462 2.02522,6.4005 -2.49536,11.1489 -4.42772,2.1774 -8.38238,0.8064 -12.28063,-0.987 0.12521,5.3448 0.14671,10.6896 2.09716,16.0345 8.06131,5.7392 10.36398,10.2721 12.92584,15.4944 l 3.63273,8.0327 c 1.0561,3.5748 2.24136,7.1062 4.88275,10.1525 2.19939,-2.3267 3.25901,-4.8819 4.13142,-7.4739 1.01273,-4.0652 1.7183,-5.9748 2.47473,-8.246 1.95992,-4.1243 2.54589,-8.7661 6.31215,-12.1162 3.29891,-3.1616 6.23877,-6.3232 9.29029,-9.4847 2.616,-3.7072 2.04402,-8.5387 1.72622,-12.9794 -4.30688,2.0348 -8.32929,3.8344 -12.92113,1.282 -5.49753,-7.8758 -1.60274,-10.9786 -0.14277,-10.8127 1.99507,-0.9534 6.36346,1.6315 10.669,1.39 7.97538,-4.2588 13.38862,-10.795 19.02762,-17.1306 1.29187,-5.4592 -0.88771,-9.0241 -2.40144,-12.953 -6.79253,3.0173 -12.94883,5.4356 -17.65084,1.3975 -3.44303,-7.0466 1.91746,-10.1615 7.813,-12.6291 -2.39625,-14.328 5.56216,-13.189 8.73995,-11.0747 5.07769,3.8031 6.6385,10.9098 8.11069,15.5734 l 0.005,-75.1723 z m 47.18402,85.3999 a 7.3931635,7.6335916 0 0 1 7.39316,7.6335 7.3931635,7.6335916 0 0 1 -7.39316,7.6336 7.3931635,7.6335916 0 0 1 -7.39317,-7.6336 7.3931635,7.6335916 0 0 1 7.39317,-7.6335 z" />
    <path
       id="path2614"
       style="fill-opacity:0.77777779;stroke-width:0.480856;fill:#ffffff"
       inkscape:highlight-color="#d78551"
       d="m 410.4413,1041.9004 0.005,75.1591 c 1.63251,-6.382 4.19975,-11.5741 8.24409,-15.5442 2.94563,-1.4918 7.60902,-0.9347 10.81739,1.5355 1.55816,3.5765 3.31887,7.9845 -0.12022,12.8103 3.25179,-0.218 6.54407,-0.7066 8.7512,6.1272 -1.35015,3.7177 -4.53519,6.5579 -9.55043,5.7721 l -10.65211,-2.8165 c -2.68328,9.7595 -0.52145,15.9864 3.55194,20.5021 l 16.84405,11.1846 c 3.04103,-3.5669 5.5875,-7.2134 11.27007,-4.1765 1.89784,3.9462 2.02522,6.4005 -2.49536,11.1489 -4.42772,2.1774 -8.38238,0.8064 -12.28063,-0.987 0.12521,5.3448 0.14671,10.6896 2.09716,16.0345 8.06131,5.7392 10.36399,10.2721 12.92584,15.4944 l 3.63273,8.0327 c 1.0561,3.5748 2.24136,7.1062 4.88275,10.1525 2.19939,-2.3267 3.25901,-4.8819 4.13142,-7.4739 1.01274,-4.0652 1.7183,-5.9748 2.47473,-8.246 1.95992,-4.1243 2.54589,-8.7661 6.31215,-12.1162 3.29891,-3.1616 6.23877,-6.3232 9.29029,-9.4847 2.616,-3.7072 2.04402,-8.5387 1.72622,-12.9794 -4.30688,2.0348 -8.32929,3.8344 -12.92113,1.282 -5.49753,-7.8758 -1.60274,-10.9786 -0.14277,-10.8127 1.99507,-0.9534 6.36346,1.6315 10.669,1.39 7.97538,-4.2588 13.38862,-10.795 19.02762,-17.1306 1.29187,-5.4592 -0.88771,-9.0241 -2.40144,-12.953 -6.79253,3.0173 -12.94883,5.4356 -17.65084,1.3975 -3.44302,-7.0466 1.91746,-10.1615 7.813,-12.6291 -2.39625,-14.328 5.56216,-13.189 8.73995,-11.0747 5.07769,3.8031 6.6385,10.9098 8.11069,15.5734 l 0.005,-75.1723 z m 47.18402,85.3999 a 7.3931635,7.6335916 0 0 1 7.39316,7.6335 7.3931635,7.6335916 0 0 1 -7.39316,7.6336 7.3931635,7.6335916 0 0 1 -7.39317,-7.6336 7.3931635,7.6335916 0 0 1 7.39317,-7.6335 z" />
    <path
       id="path2616"
       style="fill-opacity:0.77777779;stroke-width:0.480856;fill:#ffffff"
       inkscape:highlight-color="#d78551"
       d="m 503.53482,1041.9004 0.005,75.1591 c 1.6325,-6.382 4.19975,-11.5741 8.24408,-15.5442 2.94563,-1.4918 7.60902,-0.9347 10.81739,1.5355 1.55817,3.5765 3.31887,7.9845 -0.12021,12.8103 3.25179,-0.218 6.54407,-0.7066 8.75119,6.1272 -1.35014,3.7177 -4.53519,6.5579 -9.55042,5.7721 l -10.65212,-2.8165 c -2.68328,9.7595 -0.52144,15.9864 3.55194,20.5021 l 16.84405,11.1846 c 3.04103,-3.5669 5.5875,-7.2134 11.27007,-4.1765 1.89784,3.9462 2.02522,6.4005 -2.49536,11.1489 -4.42772,2.1774 -8.38238,0.8064 -12.28063,-0.987 0.12522,5.3448 0.14671,10.6896 2.09716,16.0345 8.06131,5.7392 10.36399,10.2721 12.92585,15.4944 l 3.63272,8.0327 c 1.0561,3.5748 2.24137,7.1062 4.88276,10.1525 2.19939,-2.3267 3.259,-4.8819 4.13142,-7.4739 1.01273,-4.0652 1.71829,-5.9748 2.47472,-8.246 1.95993,-4.1243 2.5459,-8.7661 6.31215,-12.1162 3.29892,-3.1616 6.23878,-6.3232 9.29029,-9.4847 2.616,-3.7072 2.04402,-8.5387 1.72623,-12.9794 -4.30689,2.0348 -8.3293,3.8344 -12.92114,1.282 -5.49753,-7.8758 -1.60274,-10.9786 -0.14277,-10.8127 1.99508,-0.9534 6.36346,1.6315 10.669,1.39 7.97539,-4.2588 13.38862,-10.795 19.02762,-17.1306 1.29187,-5.4592 -0.8877,-9.0241 -2.40144,-12.953 -6.79253,3.0173 -12.94883,5.4356 -17.65084,1.3975 -3.44302,-7.0466 1.91747,-10.1615 7.813,-12.6291 -2.39625,-14.328 5.56216,-13.189 8.73995,-11.0747 5.0777,3.8031 6.63851,10.9098 8.1107,15.5734 l 0.005,-75.1723 z m 47.18401,85.3999 a 7.3931635,7.6335916 0 0 1 7.39316,7.6335 7.3931635,7.6335916 0 0 1 -7.39316,7.6336 7.3931635,7.6335916 0 0 1 -7.39316,-7.6336 7.3931635,7.6335916 0 0 1 7.39316,-7.6335 z" />
    <path
       id="path2618"
       style="fill-opacity:0.77777779;stroke-width:0.480856;fill:#ffffff"
       inkscape:highlight-color="#d78551"
       d="m 596.63093,1041.9004 0.005,75.1591 c 1.6325,-6.382 4.19975,-11.5741 8.24408,-15.5442 2.94563,-1.4918 7.60902,-0.9347 10.81739,1.5355 1.55817,3.5765 3.31887,7.9845 -0.12021,12.8103 3.25179,-0.218 6.54406,-0.7066 8.75119,6.1272 -1.35014,3.7177 -4.53519,6.5579 -9.55042,5.7721 l -10.65212,-2.8165 c -2.68328,9.7595 -0.52144,15.9864 3.55194,20.5021 l 16.84405,11.1846 c 3.04103,-3.5669 5.5875,-7.2134 11.27007,-4.1765 1.89784,3.9462 2.02522,6.4005 -2.49536,11.1489 -4.42772,2.1774 -8.38238,0.8064 -12.28063,-0.987 0.12522,5.3448 0.14671,10.6896 2.09716,16.0345 8.06131,5.7392 10.36399,10.2721 12.92585,15.4944 l 3.63272,8.0327 c 1.0561,3.5748 2.24137,7.1062 4.88276,10.1525 2.19938,-2.3267 3.259,-4.8819 4.13142,-7.4739 1.01273,-4.0652 1.71829,-5.9748 2.47472,-8.246 1.95992,-4.1243 2.5459,-8.7661 6.31215,-12.1162 3.29892,-3.1616 6.23878,-6.3232 9.29029,-9.4847 2.616,-3.7072 2.04402,-8.5387 1.72622,-12.9794 -4.30688,2.0348 -8.32929,3.8344 -12.92113,1.282 -5.49753,-7.8758 -1.60274,-10.9786 -0.14277,-10.8127 1.99508,-0.9534 6.36346,1.6315 10.669,1.39 7.97538,-4.2588 13.38862,-10.795 19.02762,-17.1306 1.29187,-5.4592 -0.88771,-9.0241 -2.40144,-12.953 -6.79253,3.0173 -12.94883,5.4356 -17.65084,1.3975 -3.44302,-7.0466 1.91747,-10.1615 7.813,-12.6291 -2.39625,-14.328 5.56216,-13.189 8.73995,-11.0747 5.0777,3.8031 6.63851,10.9098 8.1107,15.5734 l 0.005,-75.1723 z m 47.18401,85.3999 a 7.3931635,7.6335916 0 0 1 7.39316,7.6335 7.3931635,7.6335916 0 0 1 -7.39316,7.6336 7.3931635,7.6335916 0 0 1 -7.39316,-7.6336 7.3931635,7.6335916 0 0 1 7.39316,-7.6335 z" />
    <path
       id="path2620"
       style="fill-opacity:0.77777779;stroke-width:0.480856;fill:#ffffff"
       inkscape:highlight-color="#d78551"
       d="m 689.73579,1041.9004 0.005,75.1591 c 1.6325,-6.382 4.19975,-11.5741 8.24408,-15.5442 2.94563,-1.4918 7.60902,-0.9347 10.81739,1.5355 1.55817,3.5765 3.31887,7.9845 -0.12021,12.8103 3.25179,-0.218 6.54407,-0.7066 8.7512,6.1272 -1.35015,3.7177 -4.5352,6.5579 -9.55043,5.7721 l -10.65212,-2.8165 c -2.68327,9.7595 -0.52144,15.9864 3.55194,20.5021 l 16.84405,11.1846 c 3.04103,-3.5669 5.5875,-7.2134 11.27007,-4.1765 1.89784,3.9462 2.02522,6.4005 -2.49535,11.1489 -4.42773,2.1774 -8.38239,0.8064 -12.28064,-0.987 0.12522,5.3448 0.14671,10.6896 2.09716,16.0345 8.06131,5.7392 10.36399,10.2721 12.92585,15.4944 l 3.63272,8.0327 c 1.0561,3.5748 2.24137,7.1062 4.88276,10.1525 2.19939,-2.3267 3.259,-4.8819 4.13142,-7.4739 1.01273,-4.0652 1.71829,-5.9748 2.47472,-8.246 1.95993,-4.1243 2.5459,-8.7661 6.31216,-12.1162 3.29891,-3.1616 6.23877,-6.3232 9.29028,-9.4847 2.616,-3.7072 2.04402,-8.5387 1.72623,-12.9794 -4.30689,2.0348 -8.3293,3.8344 -12.92114,1.282 -5.49753,-7.8758 -1.60274,-10.9786 -0.14276,-10.8127 1.99507,-0.9534 6.36345,1.6315 10.66899,1.39 7.97539,-4.2588 13.38862,-10.795 19.02762,-17.1306 1.29187,-5.4592 -0.8877,-9.0241 -2.40144,-12.953 -6.79253,3.0173 -12.94883,5.4356 -17.65083,1.3975 -3.44303,-7.0466 1.91746,-10.1615 7.81299,-12.6291 -2.39625,-14.328 5.56216,-13.189 8.73995,-11.0747 5.0777,3.8031 6.63851,10.9098 8.1107,15.5734 l 0.005,-75.1723 z m 47.18401,85.3999 a 7.3931635,7.6335916 0 0 1 7.39316,7.6335 7.3931635,7.6335916 0 0 1 -7.39316,7.6336 7.3931635,7.6335916 0 0 1 -7.39316,-7.6336 7.3931635,7.6335916 0 0 1 7.39316,-7.6335 z" />
    <path
       id="path2622"
       style="fill-opacity:0.77777779;stroke-width:0.480856;fill:#ffffff"
       inkscape:highlight-color="#d78551"
       d="m 782.8319,1041.9004 0.005,75.1591 c 1.6325,-6.382 4.19975,-11.5741 8.24408,-15.5442 2.94563,-1.4918 7.60902,-0.9347 10.81739,1.5355 1.55817,3.5765 3.31887,7.9845 -0.12021,12.8103 3.25179,-0.218 6.54407,-0.7066 8.7512,6.1272 -1.35015,3.7177 -4.5352,6.5579 -9.55043,5.7721 l -10.65212,-2.8165 c -2.68327,9.7595 -0.52144,15.9864 3.55194,20.5021 l 16.84405,11.1846 c 3.04103,-3.5669 5.5875,-7.2134 11.27007,-4.1765 1.89784,3.9462 2.02522,6.4005 -2.49535,11.1489 -4.42773,2.1774 -8.38239,0.8064 -12.28064,-0.987 0.12522,5.3448 0.14671,10.6896 2.09716,16.0345 8.06131,5.7392 10.36399,10.2721 12.92585,15.4944 l 3.63272,8.0327 c 1.0561,3.5748 2.24137,7.1062 4.88276,10.1525 2.19939,-2.3267 3.259,-4.8819 4.13142,-7.4739 1.01273,-4.0652 1.71829,-5.9748 2.47472,-8.246 1.95993,-4.1243 2.5459,-8.7661 6.31215,-12.1162 3.29892,-3.1616 6.23878,-6.3232 9.29029,-9.4847 2.616,-3.7072 2.04402,-8.5387 1.72623,-12.9794 -4.30689,2.0348 -8.3293,3.8344 -12.92114,1.282 -5.49753,-7.8758 -1.60274,-10.9786 -0.14276,-10.8127 1.99507,-0.9534 6.36345,1.6315 10.66899,1.39 7.97539,-4.2588 13.38862,-10.795 19.02762,-17.1306 1.29187,-5.4592 -0.8877,-9.0241 -2.40144,-12.953 -6.79253,3.0173 -12.94883,5.4356 -17.65083,1.3975 -3.44303,-7.0466 1.91746,-10.1615 7.81299,-12.6291 -2.39625,-14.328 5.56216,-13.189 8.73995,-11.0747 5.0777,3.8031 6.63851,10.9098 8.1107,15.5734 l 0.005,-75.1723 z m 47.18401,85.3999 a 7.3931635,7.6335916 0 0 1 7.39316,7.6335 7.3931635,7.6335916 0 0 1 -7.39316,7.6336 7.3931635,7.6335916 0 0 1 -7.39316,-7.6336 7.3931635,7.6335916 0 0 1 7.39316,-7.6335 z" />
    <path
       id="path2624"
       style="fill-opacity:0.77777779;stroke-width:0.480856;fill:#ffffff"
       inkscape:highlight-color="#d78551"
       d="m 875.92541,1041.9004 0.005,75.1591 c 1.63251,-6.382 4.19975,-11.5741 8.24409,-15.5442 2.94563,-1.4918 7.60902,-0.9347 10.81738,1.5355 1.55817,3.5765 3.31887,7.9845 -0.12021,12.8103 3.25179,-0.218 6.54407,-0.7066 8.7512,6.1272 -1.35015,3.7177 -4.5352,6.5579 -9.55043,5.7721 l -10.65212,-2.8165 c -2.68327,9.7595 -0.52144,15.9864 3.55194,20.5021 l 16.84406,11.1846 c 3.04103,-3.5669 5.5875,-7.2134 11.27006,-4.1765 1.89785,3.9462 2.02523,6.4005 -2.49535,11.1489 -4.42773,2.1774 -8.38238,0.8064 -12.28064,-0.987 0.12522,5.3448 0.14671,10.6896 2.09716,16.0345 8.06132,5.7392 10.36399,10.2721 12.92585,15.4944 l 3.63272,8.0327 c 1.05611,3.5748 2.24137,7.1062 4.88276,10.1525 2.19939,-2.3267 3.259,-4.8819 4.13142,-7.4739 1.01273,-4.0652 1.71829,-5.9748 2.47473,-8.246 1.95992,-4.1243 2.54589,-8.7661 6.31215,-12.1162 3.29891,-3.1616 6.23877,-6.3232 9.29028,-9.4847 2.61601,-3.7072 2.04403,-8.5387 1.72623,-12.9794 -4.30689,2.0348 -8.3293,3.8344 -12.92114,1.282 -5.49753,-7.8758 -1.60274,-10.9786 -0.14276,-10.8127 1.99507,-0.9534 6.36346,1.6315 10.66899,1.39 7.97539,-4.2588 13.38863,-10.795 19.02763,-17.1306 1.29187,-5.4592 -0.88771,-9.0241 -2.40145,-12.953 -6.79252,3.0173 -12.94883,5.4356 -17.65083,1.3975 -3.44303,-7.0466 1.91746,-10.1615 7.813,-12.6291 -2.39625,-14.328 5.56216,-13.189 8.73994,-11.0747 5.0777,3.8031 6.63851,10.9098 8.1107,15.5734 l 0.005,-75.1723 z m 47.18401,85.3999 a 7.3931635,7.6335916 0 0 1 7.39317,7.6335 7.3931635,7.6335916 0 0 1 -7.39317,7.6336 7.3931635,7.6335916 0 0 1 -7.39316,-7.6336 7.3931635,7.6335916 0 0 1 7.39316,-7.6335 z" />
    <path
       id="path2626"
       style="fill-opacity:0.77777779;stroke-width:0.480856;fill:#ffffff"
       inkscape:highlight-color="#d78551"
       d="m 969.02152,1041.9004 0.005,75.1591 c 1.63251,-6.382 4.19975,-11.5741 8.24409,-15.5442 2.94562,-1.4918 7.60902,-0.9347 10.81738,1.5355 1.55817,3.5765 3.31887,7.9845 -0.12021,12.8103 3.25179,-0.218 6.54407,-0.7066 8.7512,6.1272 -1.35015,3.7177 -4.5352,6.5579 -9.55043,5.7721 l -10.65212,-2.8165 c -2.68327,9.7595 -0.52144,15.9864 3.55194,20.5021 l 16.84406,11.1846 c 3.04103,-3.5669 5.58747,-7.2134 11.27007,-4.1765 1.8978,3.9462 2.0252,6.4005 -2.4954,11.1489 -4.4277,2.1774 -8.38234,0.8064 -12.2806,-0.987 0.12522,5.3448 0.14671,10.6896 2.09716,16.0345 8.06134,5.7392 10.36404,10.2721 12.92584,15.4944 l 3.6327,8.0327 c 1.0561,3.5748 2.2414,7.1062 4.8828,10.1525 2.1994,-2.3267 3.259,-4.8819 4.1314,-7.4739 1.0128,-4.0652 1.7183,-5.9748 2.4747,-8.246 1.96,-4.1243 2.5459,-8.7661 6.3122,-12.1162 3.2989,-3.1616 6.2388,-6.3232 9.2903,-9.4847 2.616,-3.7072 2.044,-8.5387 1.7262,-12.9794 -4.3069,2.0348 -8.3293,3.8344 -12.9211,1.282 -5.4976,-7.8758 -1.6028,-10.9786 -0.1428,-10.8127 1.9951,-0.9534 6.3635,1.6315 10.669,1.39 7.9754,-4.2588 13.3886,-10.795 19.0276,-17.1306 1.2919,-5.4592 -0.8877,-9.0241 -2.4014,-12.953 -6.7925,3.0173 -12.9488,5.4356 -17.6509,1.3975 -3.443,-7.0466 1.9175,-10.1615 7.813,-12.6291 -2.3962,-14.328 5.5622,-13.189 8.74,-11.0747 5.0777,3.8031 6.6385,10.9098 8.1107,15.5734 v -75.1723 z m 47.18398,85.3999 a 7.3931635,7.6335916 0 0 1 7.3932,7.6335 7.3931635,7.6335916 0 0 1 -7.3932,7.6336 7.3931635,7.6335916 0 0 1 -7.3931,-7.6336 7.3931635,7.6335916 0 0 1 7.3931,-7.6335 z" />
    <path
       id="path2628"
       style="fill-opacity:0.77777779;stroke-width:0.480856;fill:#ffffff"
       inkscape:highlight-color="#d78551"
       d="m 1062.1416,1041.9004 v 75.1591 c 1.6325,-6.382 4.1997,-11.5741 8.2441,-15.5442 2.9456,-1.4918 7.609,-0.9347 10.8174,1.5355 1.5581,3.5765 3.3188,7.9845 -0.1203,12.8103 3.2518,-0.218 6.5441,-0.7066 8.7512,6.1272 -1.3501,3.7177 -4.5352,6.5579 -9.5504,5.7721 l -10.6521,-2.8165 c -2.6833,9.7595 -0.5214,15.9864 3.5519,20.5021 l 16.8441,11.1846 c 3.041,-3.5669 5.5875,-7.2134 11.2701,-4.1765 1.8978,3.9462 2.0252,6.4005 -2.4954,11.1489 -4.4277,2.1774 -8.3824,0.8064 -12.2806,-0.987 0.1252,5.3448 0.1467,10.6896 2.0971,16.0345 8.0613,5.7392 10.364,10.2721 12.9259,15.4944 l 3.6327,8.0327 c 1.0561,3.5748 2.2414,7.1062 4.8828,10.1525 2.1993,-2.3267 3.259,-4.8819 4.1314,-7.4739 1.0127,-4.0652 1.7183,-5.9748 2.4747,-8.246 1.9599,-4.1243 2.5459,-8.7661 6.3122,-12.1162 3.2989,-3.1616 6.2387,-6.3232 9.2902,-9.4847 2.616,-3.7072 2.0441,-8.5387 1.7263,-12.9794 -4.3069,2.0348 -8.3293,3.8344 -12.9212,1.282 -5.4975,-7.8758 -1.6027,-10.9786 -0.1427,-10.8127 1.995,-0.9534 6.3634,1.6315 10.669,1.39 7.9753,-4.2588 13.3886,-10.795 19.0276,-17.1306 1.2919,-5.4592 -0.8877,-9.0241 -2.4015,-12.953 -6.7925,3.0173 -12.9488,5.4356 -17.6508,1.3975 -3.443,-7.0466 1.9175,-10.1615 7.813,-12.6291 -2.3962,-14.328 5.5622,-13.189 8.7399,-11.0747 5.0777,3.8031 6.6386,10.9098 8.1107,15.5734 v -75.1723 z m 47.184,85.3999 a 7.3931635,7.6335916 0 0 1 7.3932,7.6335 7.3931635,7.6335916 0 0 1 -7.3932,7.6336 7.3931635,7.6335916 0 0 1 -7.3932,-7.6336 7.3931635,7.6335916 0 0 1 7.3932,-7.6335 z" />
    <path
       id="path2630"
       style="fill-opacity:0.77777779;stroke-width:0.480856;fill:#ffffff"
       inkscape:highlight-color="#d78551"
       d="m 1155.4077,1041.9004 v 75.1591 c 1.6325,-6.382 4.1998,-11.5741 8.2441,-15.5442 2.9456,-1.4918 7.609,-0.9347 10.8174,1.5355 1.5582,3.5765 3.3189,7.9845 -0.1202,12.8103 3.2518,-0.218 6.5441,-0.7066 8.7512,6.1272 -1.3502,3.7177 -4.5352,6.5579 -9.5504,5.7721 l -10.6522,-2.8165 c -2.6832,9.7595 -0.5214,15.9864 3.552,20.5021 l 16.844,11.1846 c 3.0411,-3.5669 5.5875,-7.2134 11.2701,-4.1765 1.8978,3.9462 2.0252,6.4005 -2.4954,11.1489 -4.4277,2.1774 -8.3823,0.8064 -12.2806,-0.987 0.1252,5.3448 0.1467,10.6896 2.0972,16.0345 8.0613,5.7392 10.364,10.2721 12.9258,15.4944 l 3.6327,8.0327 c 1.0561,3.5748 2.2414,7.1062 4.8828,10.1525 2.1994,-2.3267 3.259,-4.8819 4.1314,-7.4739 1.0127,-4.0652 1.7183,-5.9748 2.4747,-8.246 1.96,-4.1243 2.5459,-8.7661 6.3122,-12.1162 3.2989,-3.1616 6.2388,-6.3232 9.2903,-9.4847 2.616,-3.7072 2.044,-8.5387 1.7262,-12.9794 -4.3069,2.0348 -8.3293,3.8344 -12.9211,1.282 -5.4976,-7.8758 -1.6028,-10.9786 -0.1428,-10.8127 1.9951,-0.9534 6.3635,1.6315 10.669,1.39 7.9754,-4.2588 13.3886,-10.795 19.0276,-17.1306 1.2919,-5.4592 -0.8877,-9.0241 -2.4014,-12.953 -6.7925,3.0173 -12.9489,5.4356 -17.6509,1.3975 -3.443,-7.0466 1.9175,-10.1615 7.813,-12.6291 -2.3962,-14.328 5.5622,-13.189 8.74,-11.0747 5.0777,3.8031 6.6385,10.9098 8.1107,15.5734 v -75.1723 z m 47.184,85.3999 a 7.3931635,7.6335916 0 0 1 7.3932,7.6335 7.3931635,7.6335916 0 0 1 -7.3932,7.6336 7.3931635,7.6335916 0 0 1 -7.3931,-7.6336 7.3931635,7.6335916 0 0 1 7.3931,-7.6335 z" />
    <path
       id="path2632"
       style="fill-opacity:0.77777779;stroke-width:0.480856;fill:#ffffff"
       inkscape:highlight-color="#d78551"
       d="m 1248.5012,1041.9004 v 75.1591 c 1.6325,-6.382 4.1998,-11.5741 8.2441,-15.5442 2.9457,-1.4918 7.609,-0.9347 10.8174,1.5355 1.5582,3.5765 3.3189,7.9845 -0.1202,12.8103 3.2518,-0.218 6.5441,-0.7066 8.7512,6.1272 -1.3502,3.7177 -4.5352,6.5579 -9.5504,5.7721 l -10.6521,-2.8165 c -2.6833,9.7595 -0.5215,15.9864 3.5519,20.5021 l 16.844,11.1846 c 3.0411,-3.5669 5.5875,-7.2134 11.2701,-4.1765 1.8979,3.9462 2.0252,6.4005 -2.4953,11.1489 -4.4278,2.1774 -8.3824,0.8064 -12.2807,-0.987 0.1252,5.3448 0.1467,10.6896 2.0972,16.0345 8.0613,5.7392 10.364,10.2721 12.9258,15.4944 l 3.6328,8.0327 c 1.0561,3.5748 2.2413,7.1062 4.8827,10.1525 2.1994,-2.3267 3.259,-4.8819 4.1314,-7.4739 1.0128,-4.0652 1.7183,-5.9748 2.4748,-8.246 1.9599,-4.1243 2.5458,-8.7661 6.3121,-12.1162 3.2989,-3.1616 6.2388,-6.3232 9.2903,-9.4847 2.616,-3.7072 2.044,-8.5387 1.7262,-12.9794 -4.3069,2.0348 -8.3293,3.8344 -12.9211,1.282 -5.4975,-7.8758 -1.6028,-10.9786 -0.1428,-10.8127 1.9951,-0.9534 6.3635,1.6315 10.669,1.39 7.9754,-4.2588 13.3886,-10.795 19.0276,-17.1306 1.2919,-5.4592 -0.8877,-9.0241 -2.4014,-12.953 -6.7925,3.0173 -12.9488,5.4356 -17.6508,1.3975 -3.4431,-7.0466 1.9174,-10.1615 7.813,-12.6291 -2.3963,-14.328 5.5621,-13.189 8.7399,-11.0747 5.0777,3.8031 6.6385,10.9098 8.1107,15.5734 v -75.1723 z m 47.184,85.3999 a 7.3931635,7.6335916 0 0 1 7.3932,7.6335 7.3931635,7.6335916 0 0 1 -7.3932,7.6336 7.3931635,7.6335916 0 0 1 -7.3931,-7.6336 7.3931635,7.6335916 0 0 1 7.3931,-7.6335 z" />
    <path
       id="path2634"
       style="fill-opacity:0.77777779;stroke-width:0.480856;fill:#ffffff"
       inkscape:highlight-color="#d78551"
       d="m 1341.5973,1041.9004 v 75.1591 c 1.6326,-6.382 4.1998,-11.5741 8.2441,-15.5442 2.9457,-1.4918 7.6091,-0.9347 10.8174,1.5355 1.5582,3.5765 3.3189,7.9845 -0.1202,12.8103 3.2518,-0.218 6.5441,-0.7066 8.7512,6.1272 -1.3501,3.7177 -4.5352,6.5579 -9.5504,5.7721 l -10.6521,-2.8165 c -2.6833,9.7595 -0.5215,15.9864 3.5519,20.5021 l 16.8441,11.1846 c 3.041,-3.5669 5.5875,-7.2134 11.27,-4.1765 1.8979,3.9462 2.0252,6.4005 -2.4953,11.1489 -4.4278,2.1774 -8.3824,0.8064 -12.2807,-0.987 0.1252,5.3448 0.1467,10.6896 2.0972,16.0345 8.0613,5.7392 10.364,10.2721 12.9258,15.4944 l 3.6328,8.0327 c 1.0561,3.5748 2.2413,7.1062 4.8827,10.1525 2.1994,-2.3267 3.259,-4.8819 4.1314,-7.4739 1.0128,-4.0652 1.7183,-5.9748 2.4748,-8.246 1.9599,-4.1243 2.5459,-8.7661 6.3121,-12.1162 3.2989,-3.1616 6.2388,-6.3232 9.2903,-9.4847 2.616,-3.7072 2.044,-8.5387 1.7262,-12.9794 -4.3069,2.0348 -8.3293,3.8344 -12.9211,1.282 -5.4975,-7.8758 -1.6027,-10.9786 -0.1428,-10.8127 1.9951,-0.9534 6.3635,1.6315 10.669,1.39 7.9754,-4.2588 13.3886,-10.795 19.0276,-17.1306 1.2919,-5.4592 -0.8877,-9.0241 -2.4014,-12.953 -6.7925,3.0173 -12.9488,5.4356 -17.6508,1.3975 -3.4431,-7.0466 1.9174,-10.1615 7.813,-12.6291 -2.3963,-14.328 5.5621,-13.189 8.7399,-11.0747 5.0777,3.8031 6.6385,10.9098 8.1107,15.5734 v -75.1723 z m 47.1841,85.3999 a 7.3931635,7.6335916 0 0 1 7.3931,7.6335 7.3931635,7.6335916 0 0 1 -7.3931,7.6336 7.3931635,7.6335916 0 0 1 -7.3932,-7.6336 7.3931635,7.6335916 0 0 1 7.3932,-7.6335 z" />
    <path
       id="path2636"
       style="fill-opacity:0.77777779;stroke-width:0.480856;fill:#ffffff"
       inkscape:highlight-color="#d78551"
       d="m -1452.1178,1041.9004 v 75.1591 c 1.6325,-6.382 4.1998,-11.5741 8.2441,-15.5442 2.9456,-1.4918 7.609,-0.9347 10.8174,1.5355 1.5582,3.5765 3.3189,7.9845 -0.1202,12.8103 3.2518,-0.218 6.5441,-0.7066 8.7512,6.1272 -1.3502,3.7177 -4.5352,6.5579 -9.5504,5.7721 l -10.6522,-2.8165 c -2.6832,9.7595 -0.5214,15.9864 3.552,20.5021 l 16.844,11.1846 c 3.0411,-3.5669 5.5875,-7.2134 11.2701,-4.1765 1.8978,3.9462 2.0252,6.4005 -2.4954,11.1489 -4.4277,2.1774 -8.3823,0.8064 -12.2806,-0.987 0.1252,5.3448 0.1467,10.6896 2.0972,16.0345 8.0613,5.7392 10.364,10.2721 12.9258,15.4944 l 3.6327,8.0327 c 1.0561,3.5748 2.2414,7.1062 4.8828,10.1525 2.1994,-2.3267 3.259,-4.8819 4.1314,-7.4739 1.0127,-4.0652 1.7183,-5.9748 2.4747,-8.246 1.96,-4.1243 2.5459,-8.7661 6.3122,-12.1162 3.2989,-3.1616 6.2388,-6.3232 9.2903,-9.4847 2.616,-3.7072 2.044,-8.5387 1.7262,-12.9794 -4.3069,2.0348 -8.3293,3.8344 -12.9211,1.282 -5.4976,-7.8758 -1.6028,-10.9786 -0.1428,-10.8127 1.9951,-0.9534 6.3635,1.6315 10.669,1.39 7.9754,-4.2588 13.3886,-10.795 19.0276,-17.1306 1.2919,-5.4592 -0.8877,-9.0241 -2.4014,-12.953 -6.7925,3.0173 -12.9489,5.4356 -17.6509,1.3975 -3.443,-7.0466 1.9175,-10.1615 7.813,-12.6291 -2.3962,-14.328 5.5622,-13.189 8.74,-11.0747 5.0777,3.8031 6.6385,10.9098 8.1107,15.5734 v -75.1723 z m 47.184,85.3999 a 7.3931635,7.6335916 0 0 1 7.3932,7.6335 7.3931635,7.6335916 0 0 1 -7.3932,7.6336 7.3931635,7.6335916 0 0 1 -7.3931,-7.6336 7.3931635,7.6335916 0 0 1 7.3931,-7.6335 z" />
    <path
       id="path2638"
       style="fill-opacity:0.77777779;stroke-width:0.480856;fill:#ffffff"
       inkscape:highlight-color="#d78551"
       d="m -1359.0217,1041.9004 v 75.1591 c 1.6325,-6.382 4.1998,-11.5741 8.2441,-15.5442 2.9457,-1.4918 7.609,-0.9347 10.8174,1.5355 1.5582,3.5765 3.3189,7.9845 -0.1202,12.8103 3.2518,-0.218 6.5441,-0.7066 8.7512,6.1272 -1.3502,3.7177 -4.5352,6.5579 -9.5504,5.7721 l -10.6522,-2.8165 c -2.6832,9.7595 -0.5214,15.9864 3.552,20.5021 l 16.844,11.1846 c 3.0411,-3.5669 5.5875,-7.2134 11.2701,-4.1765 1.8979,3.9462 2.0252,6.4005 -2.4953,11.1489 -4.4278,2.1774 -8.3824,0.8064 -12.2807,-0.987 0.1252,5.3448 0.1467,10.6896 2.0972,16.0345 8.0613,5.7392 10.364,10.2721 12.9258,15.4944 l 3.6327,8.0327 c 1.0562,3.5748 2.2414,7.1062 4.8828,10.1525 2.1994,-2.3267 3.259,-4.8819 4.1314,-7.4739 1.0128,-4.0652 1.7183,-5.9748 2.4748,-8.246 1.9599,-4.1243 2.5458,-8.7661 6.3121,-12.1162 3.2989,-3.1616 6.2388,-6.3232 9.2903,-9.4847 2.616,-3.7072 2.044,-8.5387 1.7262,-12.9794 -4.3069,2.0348 -8.3293,3.8344 -12.9211,1.282 -5.4976,-7.8758 -1.6028,-10.9786 -0.1428,-10.8127 1.9951,-0.9534 6.3635,1.6315 10.669,1.39 7.9754,-4.2588 13.3886,-10.795 19.0276,-17.1306 1.2919,-5.4592 -0.8877,-9.0241 -2.4014,-12.953 -6.7925,3.0173 -12.9488,5.4356 -17.6508,1.3975 -3.4431,-7.0466 1.9174,-10.1615 7.813,-12.6291 -2.3963,-14.328 5.5621,-13.189 8.7399,-11.0747 5.0777,3.8031 6.6385,10.9098 8.1107,15.5734 v -75.1723 z m 47.184,85.3999 a 7.3931635,7.6335916 0 0 1 7.3932,7.6335 7.3931635,7.6335916 0 0 1 -7.3932,7.6336 7.3931635,7.6335916 0 0 1 -7.3931,-7.6336 7.3931635,7.6335916 0 0 1 7.3931,-7.6335 z" />
    <path
       id="path2640"
       style="fill-opacity:0.77777779;stroke-width:0.480856;fill:#ffffff"
       inkscape:highlight-color="#d78551"
       d="m -1265.9282,1041.9004 v 75.1591 c 1.6326,-6.382 4.1998,-11.5741 8.2441,-15.5442 2.9457,-1.4918 7.6091,-0.9347 10.8174,1.5355 1.5582,3.5765 3.3189,7.9845 -0.1202,12.8103 3.2518,-0.218 6.5441,-0.7066 8.7512,6.1272 -1.3501,3.7177 -4.5352,6.5579 -9.5504,5.7721 l -10.6521,-2.8165 c -2.6833,9.7595 -0.5215,15.9864 3.5519,20.5021 l 16.8441,11.1846 c 3.041,-3.5669 5.5875,-7.2134 11.27,-4.1765 1.8979,3.9462 2.0252,6.4005 -2.4953,11.1489 -4.4278,2.1774 -8.3824,0.8064 -12.2807,-0.987 0.1252,5.3448 0.1467,10.6896 2.0972,16.0345 8.0613,5.7392 10.364,10.2721 12.9258,15.4944 l 3.6328,8.0327 c 1.0561,3.5748 2.2413,7.1062 4.8827,10.1525 2.1994,-2.3267 3.259,-4.8819 4.1314,-7.4739 1.0128,-4.0652 1.7183,-5.9748 2.4748,-8.246 1.9599,-4.1243 2.5459,-8.7661 6.3121,-12.1162 3.2989,-3.1616 6.2388,-6.3232 9.2903,-9.4847 2.616,-3.7072 2.044,-8.5387 1.7262,-12.9794 -4.3069,2.0348 -8.3293,3.8344 -12.9211,1.282 -5.4975,-7.8758 -1.6027,-10.9786 -0.1428,-10.8127 1.9951,-0.9534 6.3635,1.6315 10.669,1.39 7.9754,-4.2588 13.3886,-10.795 19.0276,-17.1306 1.2919,-5.4592 -0.8877,-9.0241 -2.4014,-12.953 -6.7925,3.0173 -12.9488,5.4356 -17.6508,1.3975 -3.4431,-7.0466 1.9174,-10.1615 7.813,-12.6291 -2.3963,-14.328 5.5621,-13.189 8.7399,-11.0747 5.0777,3.8031 6.6385,10.9098 8.1107,15.5734 v -75.1723 z m 47.1841,85.3999 a 7.3931635,7.6335916 0 0 1 7.3931,7.6335 7.3931635,7.6335916 0 0 1 -7.3931,7.6336 7.3931635,7.6335916 0 0 1 -7.3932,-7.6336 7.3931635,7.6335916 0 0 1 7.3932,-7.6335 z" />
    <path
       id="path2642"
       style="fill-opacity:0.77777779;stroke-width:0.480856;fill:#ffffff"
       inkscape:highlight-color="#d78551"
       d="m -1172.8321,1041.9004 v 75.1591 c 1.6325,-6.382 4.1997,-11.5741 8.244,-15.5442 2.9457,-1.4918 7.6091,-0.9347 10.8174,1.5355 1.5582,3.5765 3.3189,7.9845 -0.1202,12.8103 3.2518,-0.218 6.5441,-0.7066 8.7512,6.1272 -1.3501,3.7177 -4.5352,6.5579 -9.5504,5.7721 l -10.6521,-2.8165 c -2.6833,9.7595 -0.5215,15.9864 3.5519,20.5021 l 16.8441,11.1846 c 3.041,-3.5669 5.5875,-7.2134 11.27,-4.1765 1.8979,3.9462 2.0253,6.4005 -2.4953,11.1489 -4.4277,2.1774 -8.3824,0.8064 -12.2807,-0.987 0.1253,5.3448 0.1468,10.6896 2.0972,16.0345 8.0613,5.7392 10.364,10.2721 12.9258,15.4944 l 3.6328,8.0327 c 1.0561,3.5748 2.2413,7.1062 4.8827,10.1525 2.1994,-2.3267 3.259,-4.8819 4.1314,-7.4739 1.0128,-4.0652 1.7183,-5.9748 2.4748,-8.246 1.9599,-4.1243 2.5459,-8.7661 6.3121,-12.1162 3.2989,-3.1616 6.2388,-6.3232 9.2903,-9.4847 2.616,-3.7072 2.044,-8.5387 1.7262,-12.9794 -4.3068,2.0348 -8.3293,3.8344 -12.9211,1.282 -5.4975,-7.8758 -1.6027,-10.9786 -0.1428,-10.8127 1.9951,-0.9534 6.3635,1.6315 10.669,1.39 7.9754,-4.2588 13.3887,-10.795 19.0277,-17.1306 1.2918,-5.4592 -0.8878,-9.0241 -2.4015,-12.953 -6.7925,3.0173 -12.9488,5.4356 -17.6508,1.3975 -3.443,-7.0466 1.9174,-10.1615 7.813,-12.6291 -2.3963,-14.328 5.5621,-13.189 8.7399,-11.0747 5.0777,3.8031 6.6385,10.9098 8.1107,15.5734 v -75.1723 z m 47.1841,85.3999 a 7.3931635,7.6335916 0 0 1 7.3931,7.6335 7.3931635,7.6335916 0 0 1 -7.3931,7.6336 7.3931635,7.6335916 0 0 1 -7.3932,-7.6336 7.3931635,7.6335916 0 0 1 7.3932,-7.6335 z" />
    <path
       id="path2644"
       style="fill-opacity:0.77777779;stroke-width:0.480856;fill:#ffffff"
       inkscape:highlight-color="#d78551"
       d="m -1079.712,1041.9004 v 75.1591 c 1.6325,-6.382 4.1998,-11.5741 8.2441,-15.5442 2.9456,-1.4918 7.609,-0.9347 10.8174,1.5355 1.5582,3.5765 3.3189,7.9845 -0.1202,12.8103 3.2518,-0.218 6.544,-0.7066 8.7512,6.1272 -1.3502,3.7177 -4.5352,6.5579 -9.5505,5.7721 l -10.6521,-2.8165 c -2.6832,9.7595 -0.5214,15.9864 3.552,20.5021 l 16.844,11.1846 c 3.0411,-3.5669 5.5875,-7.2134 11.2701,-4.1765 1.8978,3.9462 2.0252,6.4005 -2.4954,11.1489 -4.4277,2.1774 -8.3823,0.8064 -12.2806,-0.987 0.1252,5.3448 0.1467,10.6896 2.0972,16.0345 8.0613,5.7392 10.3639,10.2721 12.9258,15.4944 l 3.6327,8.0327 c 1.0561,3.5748 2.2414,7.1062 4.8828,10.1525 2.1994,-2.3267 3.259,-4.8819 4.1314,-7.4739 1.0127,-4.0652 1.7183,-5.9748 2.4747,-8.246 1.96,-4.1243 2.5459,-8.7661 6.3122,-12.1162 3.2989,-3.1616 6.2388,-6.3232 9.2903,-9.4847 2.616,-3.7072 2.044,-8.5387 1.7262,-12.9794 -4.3069,2.0348 -8.3293,3.8344 -12.9211,1.282 -5.4976,-7.8758 -1.6028,-10.9786 -0.1428,-10.8127 1.9951,-0.9534 6.3635,1.6315 10.669,1.39 7.9754,-4.2588 13.38861,-10.795 19.02761,-17.1306 1.29187,-5.4592 -0.88771,-9.0241 -2.40144,-12.953 -6.79257,3.0173 -12.94887,5.4356 -17.65087,1.3975 -3.443,-7.0466 1.9175,-10.1615 7.813,-12.6291 -2.3962,-14.328 5.56219,-13.189 8.73998,-11.0747 5.07769,3.8031 6.63851,10.9098 8.11069,15.5734 l 0.005,-75.1723 z m 47.184,85.3999 a 7.3931635,7.6335916 0 0 1 7.3932,7.6335 7.3931635,7.6335916 0 0 1 -7.3932,7.6336 7.3931635,7.6335916 0 0 1 -7.3931,-7.6336 7.3931635,7.6335916 0 0 1 7.3931,-7.6335 z" />
    <path
       id="path2646"
       style="fill-opacity:0.77777779;stroke-width:0.480856;fill:#ffffff"
       inkscape:highlight-color="#d78551"
       d="m -986.44585,1041.9004 0.005,75.1591 c 1.6325,-6.382 4.19974,-11.5741 8.24408,-15.5442 2.94563,-1.4918 7.60902,-0.9347 10.81739,1.5355 1.55817,3.5765 3.31887,7.9845 -0.12021,12.8103 3.25179,-0.218 6.54406,-0.7066 8.75119,6.1272 -1.35014,3.7177 -4.53519,6.5579 -9.55042,5.7721 l -10.65212,-2.8165 c -2.68328,9.7595 -0.52144,15.9864 3.55194,20.5021 l 16.84405,11.1846 c 3.04103,-3.5669 5.5875,-7.2134 11.27007,-4.1765 1.89784,3.9462 2.02522,6.4005 -2.49536,11.1489 -4.42772,2.1774 -8.38238,0.8064 -12.28063,-0.987 0.12521,5.3448 0.14671,10.6896 2.09716,16.0345 8.06131,5.7392 10.36399,10.2721 12.92584,15.4944 l 3.63273,8.0327 c 1.0561,3.5748 2.24137,7.1062 4.88276,10.1525 2.19938,-2.3267 3.259,-4.8819 4.13142,-7.4739 1.01273,-4.0652 1.71829,-5.9748 2.47472,-8.246 1.95992,-4.1243 2.5459,-8.7661 6.31215,-12.1162 3.29892,-3.1616 6.23878,-6.3232 9.29029,-9.4847 2.616,-3.7072 2.04402,-8.5387 1.72622,-12.9794 -4.30688,2.0348 -8.32929,3.8344 -12.92113,1.282 -5.49753,-7.8758 -1.60274,-10.9786 -0.14277,-10.8127 1.99508,-0.9534 6.36346,1.6315 10.669,1.39 7.97538,-4.2588 13.38862,-10.795 19.02762,-17.1306 1.29187,-5.4592 -0.88771,-9.0241 -2.40144,-12.953 -6.79253,3.0173 -12.94883,5.4356 -17.65084,1.3975 -3.44302,-7.0466 1.91747,-10.1615 7.813,-12.6291 -2.39625,-14.328 5.56216,-13.189 8.73995,-11.0747 5.07769,3.8031 6.63851,10.9098 8.1107,15.5734 l 0.005,-75.1723 z m 47.18401,85.3999 a 7.3931635,7.6335916 0 0 1 7.39316,7.6335 7.3931635,7.6335916 0 0 1 -7.39316,7.6336 7.3931635,7.6335916 0 0 1 -7.39317,-7.6336 7.3931635,7.6335916 0 0 1 7.39317,-7.6335 z" />
    <path
       id="path2648"
       style="fill-opacity:0.77777779;stroke-width:0.480856;fill:#ffffff"
       inkscape:highlight-color="#d78551"
       d="m -893.35234,1041.9004 0.005,75.1591 c 1.6325,-6.382 4.19975,-11.5741 8.24408,-15.5442 2.94563,-1.4918 7.60902,-0.9347 10.81739,1.5355 1.55817,3.5765 3.31887,7.9845 -0.12021,12.8103 3.25179,-0.218 6.54407,-0.7066 8.7512,6.1272 -1.35015,3.7177 -4.5352,6.5579 -9.55043,5.7721 l -10.65212,-2.8165 c -2.68327,9.7595 -0.52144,15.9864 3.55194,20.5021 l 16.84406,11.1846 c 3.04103,-3.5669 5.5875,-7.2134 11.27006,-4.1765 1.89784,3.9462 2.02522,6.4005 -2.49535,11.1489 -4.42773,2.1774 -8.38238,0.8064 -12.28064,-0.987 0.12522,5.3448 0.14671,10.6896 2.09716,16.0345 8.06131,5.7392 10.36399,10.2721 12.92585,15.4944 l 3.63272,8.0327 c 1.05611,3.5748 2.24137,7.1062 4.88276,10.1525 2.19939,-2.3267 3.259,-4.8819 4.13142,-7.4739 1.01273,-4.0652 1.71829,-5.9748 2.47473,-8.246 1.95992,-4.1243 2.54589,-8.7661 6.31215,-12.1162 3.29891,-3.1616 6.23877,-6.3232 9.29028,-9.4847 2.616,-3.7072 2.04402,-8.5387 1.72623,-12.9794 -4.30689,2.0348 -8.3293,3.8344 -12.92114,1.282 -5.49753,-7.8758 -1.60274,-10.9786 -0.14276,-10.8127 1.99507,-0.9534 6.36345,1.6315 10.66899,1.39 7.97539,-4.2588 13.38863,-10.795 19.02763,-17.1306 1.29186,-5.4592 -0.88771,-9.0241 -2.40145,-12.953 -6.79252,3.0173 -12.94883,5.4356 -17.65083,1.3975 -3.44303,-7.0466 1.91746,-10.1615 7.813,-12.6291 -2.39625,-14.328 5.56215,-13.189 8.73994,-11.0747 5.0777,3.8031 6.63851,10.9098 8.1107,15.5734 l 0.005,-75.1723 z m 47.18401,85.3999 a 7.3931635,7.6335916 0 0 1 7.39316,7.6335 7.3931635,7.6335916 0 0 1 -7.39316,7.6336 7.3931635,7.6335916 0 0 1 -7.39316,-7.6336 7.3931635,7.6335916 0 0 1 7.39316,-7.6335 z" />
    <path
       id="path2650"
       style="fill-opacity:0.77777779;stroke-width:0.480856;fill:#ffffff"
       inkscape:highlight-color="#d78551"
       d="m -800.25623,1041.9004 0.005,75.1591 c 1.6325,-6.382 4.19975,-11.5741 8.24408,-15.5442 2.94563,-1.4918 7.60902,-0.9347 10.81739,1.5355 1.55817,3.5765 3.31887,7.9845 -0.12021,12.8103 3.25179,-0.218 6.54407,-0.7066 8.7512,6.1272 -1.35015,3.7177 -4.5352,6.5579 -9.55043,5.7721 l -10.65212,-2.8165 c -2.68327,9.7595 -0.52144,15.9864 3.55194,20.5021 l 16.84405,11.1846 c 3.04104,-3.5669 5.58751,-7.2134 11.27007,-4.1765 1.89784,3.9462 2.02522,6.4005 -2.49535,11.1489 -4.42773,2.1774 -8.38238,0.8064 -12.28064,-0.987 0.12522,5.3448 0.14671,10.6896 2.09716,16.0345 8.06131,5.7392 10.36399,10.2721 12.92585,15.4944 l 3.63272,8.0327 c 1.05611,3.5748 2.24137,7.1062 4.88276,10.1525 2.19939,-2.3267 3.259,-4.8819 4.13142,-7.4739 1.01273,-4.0652 1.71829,-5.9748 2.47473,-8.246 1.95992,-4.1243 2.54589,-8.7661 6.31215,-12.1162 3.29891,-3.1616 6.23877,-6.3232 9.29028,-9.4847 2.616,-3.7072 2.04402,-8.5387 1.72623,-12.9794 -4.30689,2.0348 -8.3293,3.8344 -12.92114,1.282 -5.49753,-7.8758 -1.60274,-10.9786 -0.14276,-10.8127 1.99507,-0.9534 6.36345,1.6315 10.66899,1.39 7.97539,-4.2588 13.38863,-10.795 19.02763,-17.1306 1.29186,-5.4592 -0.88771,-9.0241 -2.40145,-12.953 -6.79252,3.0173 -12.94883,5.4356 -17.65083,1.3975 -3.44303,-7.0466 1.91746,-10.1615 7.813,-12.6291 -2.39626,-14.328 5.56215,-13.189 8.73994,-11.0747 5.0777,3.8031 6.63851,10.9098 8.1107,15.5734 l 0.005,-75.1723 z m 47.18401,85.3999 a 7.3931635,7.6335916 0 0 1 7.39316,7.6335 7.3931635,7.6335916 0 0 1 -7.39316,7.6336 7.3931635,7.6335916 0 0 1 -7.39316,-7.6336 7.3931635,7.6335916 0 0 1 7.39316,-7.6335 z" />
    <path
       id="path2652"
       style="fill-opacity:0.77777779;stroke-width:0.480856;fill:#ffffff"
       inkscape:highlight-color="#d78551"
       d="m -707.15137,1041.9004 0.005,75.1591 c 1.63251,-6.382 4.19975,-11.5741 8.24409,-15.5442 2.94562,-1.4918 7.60902,-0.9347 10.81738,1.5355 1.55817,3.5765 3.31887,7.9845 -0.12021,12.8103 3.25179,-0.218 6.54407,-0.7066 8.7512,6.1272 -1.35015,3.7177 -4.5352,6.5579 -9.55043,5.7721 l -10.65212,-2.8165 c -2.68327,9.7595 -0.52144,15.9864 3.55194,20.5021 l 16.84406,11.1846 c 3.04103,-3.5669 5.5875,-7.2134 11.27006,-4.1765 1.89785,3.9462 2.02522,6.4005 -2.49535,11.1489 -4.42773,2.1774 -8.38238,0.8064 -12.28064,-0.987 0.12522,5.3448 0.14671,10.6896 2.09716,16.0345 8.06131,5.7392 10.36399,10.2721 12.92585,15.4944 l 3.63272,8.0327 c 1.05611,3.5748 2.24137,7.1062 4.88276,10.1525 2.19939,-2.3267 3.259,-4.8819 4.13142,-7.4739 1.01273,-4.0652 1.71829,-5.9748 2.47473,-8.246 1.95992,-4.1243 2.54589,-8.7661 6.31215,-12.1162 3.29891,-3.1616 6.23877,-6.3232 9.29028,-9.4847 2.616,-3.7072 2.04403,-8.5387 1.72623,-12.9794 -4.30689,2.0348 -8.3293,3.8344 -12.92114,1.282 -5.49753,-7.8758 -1.60274,-10.9786 -0.14276,-10.8127 1.99507,-0.9534 6.36346,1.6315 10.66899,1.39 7.97539,-4.2588 13.38863,-10.795 19.02763,-17.1306 1.29186,-5.4592 -0.88771,-9.0241 -2.40145,-12.953 -6.79252,3.0173 -12.94883,5.4356 -17.65083,1.3975 -3.44303,-7.0466 1.91746,-10.1615 7.813,-12.6291 -2.39625,-14.328 5.56216,-13.189 8.73994,-11.0747 5.0777,3.8031 6.63851,10.9098 8.1107,15.5734 l 0.005,-75.1723 z m 47.18401,85.3999 a 7.3931635,7.6335916 0 0 1 7.39317,7.6335 7.3931635,7.6335916 0 0 1 -7.39317,7.6336 7.3931635,7.6335916 0 0 1 -7.39316,-7.6336 7.3931635,7.6335916 0 0 1 7.39316,-7.6335 z" />
    <path
       id="path2654"
       style="fill-opacity:0.77777779;stroke-width:0.480856;fill:#ffffff"
       inkscape:highlight-color="#d78551"
       d="m -614.05526,1041.9004 0.005,75.1591 c 1.63251,-6.382 4.19975,-11.5741 8.24409,-15.5442 2.94562,-1.4918 7.60902,-0.9347 10.81738,1.5355 1.55817,3.5765 3.31887,7.9845 -0.12021,12.8103 3.25179,-0.218 6.54407,-0.7066 8.7512,6.1272 -1.35015,3.7177 -4.5352,6.5579 -9.55043,5.7721 l -10.65212,-2.8165 c -2.68327,9.7595 -0.52144,15.9864 3.55194,20.5021 l 16.84406,11.1846 c 3.04103,-3.5669 5.5875,-7.2134 11.27006,-4.1765 1.89785,3.9462 2.02522,6.4005 -2.49535,11.1489 -4.42773,2.1774 -8.38238,0.8064 -12.28064,-0.987 0.12522,5.3448 0.14671,10.6896 2.09716,16.0345 8.06131,5.7392 10.36399,10.2721 12.92585,15.4944 l 3.63272,8.0327 c 1.05611,3.5748 2.24137,7.1062 4.88276,10.1525 2.19939,-2.3267 3.259,-4.8819 4.13142,-7.4739 1.01273,-4.0652 1.71829,-5.9748 2.47473,-8.246 1.95992,-4.1243 2.54589,-8.7661 6.31215,-12.1162 3.29891,-3.1616 6.23877,-6.3232 9.29028,-9.4847 2.616,-3.7072 2.04403,-8.5387 1.72623,-12.9794 -4.30689,2.0348 -8.3293,3.8344 -12.92114,1.282 -5.49753,-7.8758 -1.60274,-10.9786 -0.14276,-10.8127 1.99507,-0.9534 6.36346,1.6315 10.66899,1.39 7.97539,-4.2588 13.38863,-10.795 19.02763,-17.1306 1.29186,-5.4592 -0.88771,-9.0241 -2.40145,-12.953 -6.79252,3.0173 -12.94883,5.4356 -17.65083,1.3975 -3.44303,-7.0466 1.91746,-10.1615 7.813,-12.6291 -2.39625,-14.328 5.56216,-13.189 8.73994,-11.0747 5.0777,3.8031 6.63851,10.9098 8.1107,15.5734 l 0.005,-75.1723 z m 47.18401,85.3999 a 7.3931635,7.6335916 0 0 1 7.39316,7.6335 7.3931635,7.6335916 0 0 1 -7.39316,7.6336 7.3931635,7.6335916 0 0 1 -7.39316,-7.6336 7.3931635,7.6335916 0 0 1 7.39316,-7.6335 z" />
    <path
       id="path2656"
       style="fill-opacity:0.77777779;stroke-width:0.480856;fill:#ffffff"
       inkscape:highlight-color="#d78551"
       d="m -520.96175,1041.9004 0.005,75.1591 c 1.63251,-6.382 4.19975,-11.5741 8.24409,-15.5442 2.94563,-1.4918 7.60902,-0.9347 10.81739,1.5355 1.55816,3.5765 3.31887,7.9845 -0.12022,12.8103 3.25179,-0.218 6.54407,-0.7066 8.7512,6.1272 -1.35015,3.7177 -4.53519,6.5579 -9.55043,5.7721 l -10.65212,-2.8165 c -2.68327,9.7595 -0.52144,15.9864 3.55194,20.5021 l 16.84406,11.1846 c 3.04103,-3.5669 5.5875,-7.2134 11.27007,-4.1765 1.89784,3.9462 2.02522,6.4005 -2.49536,11.1489 -4.42772,2.1774 -8.38238,0.8064 -12.28063,-0.987 0.12521,5.3448 0.14671,10.6896 2.09715,16.0345 8.06132,5.7392 10.36399,10.2721 12.92585,15.4944 l 3.63272,8.0327 c 1.05611,3.5748 2.24137,7.1062 4.88276,10.1525 2.19939,-2.3267 3.25901,-4.8819 4.13142,-7.4739 1.01273,-4.0652 1.71829,-5.9748 2.47473,-8.246 1.95992,-4.1243 2.54589,-8.7661 6.31215,-12.1162 3.29891,-3.1616 6.23877,-6.3232 9.29029,-9.4847 2.616,-3.7072 2.04402,-8.5387 1.72622,-12.9794 -4.30688,2.0348 -8.32929,3.8344 -12.92113,1.282 -5.49754,-7.8758 -1.60275,-10.9786 -0.14277,-10.8127 1.99507,-0.9534 6.36346,1.6315 10.669,1.39 7.97538,-4.2588 13.38862,-10.795 19.02762,-17.1306 1.29187,-5.4592 -0.88771,-9.0241 -2.40144,-12.953 -6.79253,3.0173 -12.94884,5.4356 -17.65084,1.3975 -3.44303,-7.0466 1.91746,-10.1615 7.813,-12.6291 -2.39625,-14.328 5.56216,-13.189 8.73994,-11.0747 5.0777,3.8031 6.63851,10.9098 8.1107,15.5734 l 0.005,-75.1723 z m 47.18401,85.3999 a 7.3931635,7.6335916 0 0 1 7.39317,7.6335 7.3931635,7.6335916 0 0 1 -7.39317,7.6336 7.3931635,7.6335916 0 0 1 -7.39316,-7.6336 7.3931635,7.6335916 0 0 1 7.39316,-7.6335 z" />
    <path
       id="path2658"
       style="fill-opacity:0.77777779;stroke-width:0.480856;fill:#ffffff"
       inkscape:highlight-color="#d78551"
       d="m -427.86564,1041.9004 0.005,75.1591 c 1.63251,-6.382 4.19975,-11.5741 8.24409,-15.5442 2.94563,-1.4918 7.60902,-0.9347 10.81739,1.5355 1.55816,3.5765 3.31887,7.9845 -0.12022,12.8103 3.25179,-0.218 6.54407,-0.7066 8.7512,6.1272 -1.35015,3.7177 -4.53519,6.5579 -9.55043,5.7721 l -10.65212,-2.8165 c -2.68327,9.7595 -0.52144,15.9864 3.55194,20.5021 l 16.84406,11.1846 c 3.04103,-3.5669 5.5875,-7.2134 11.27006,-4.1765 1.89785,3.9462 2.02523,6.4005 -2.49535,11.1489 -4.42772,2.1774 -8.38238,0.8064 -12.28063,-0.987 0.12521,5.3448 0.14671,10.6896 2.09715,16.0345 8.06132,5.7392 10.36399,10.2721 12.92585,15.4944 l 3.63272,8.0327 c 1.05611,3.5748 2.24137,7.1062 4.88276,10.1525 2.19939,-2.3267 3.25901,-4.8819 4.13142,-7.4739 1.01273,-4.0652 1.71829,-5.9748 2.47473,-8.246 1.95992,-4.1243 2.54589,-8.7661 6.31215,-12.1162 3.29891,-3.1616 6.23877,-6.3232 9.29028,-9.4847 2.61601,-3.7072 2.04403,-8.5387 1.72623,-12.9794 -4.30688,2.0348 -8.32929,3.8344 -12.92113,1.282 -5.49754,-7.8758 -1.60275,-10.9786 -0.14277,-10.8127 1.99507,-0.9534 6.36346,1.6315 10.669,1.39 7.97538,-4.2588 13.38862,-10.795 19.02762,-17.1306 1.29187,-5.4592 -0.88771,-9.0241 -2.40144,-12.953 -6.79253,3.0173 -12.94884,5.4356 -17.65084,1.3975 -3.44303,-7.0466 1.91746,-10.1615 7.813,-12.6291 -2.39625,-14.328 5.56216,-13.189 8.73994,-11.0747 5.0777,3.8031 6.63851,10.9098 8.1107,15.5734 l 0.005,-75.1723 z m 47.18401,85.3999 a 7.3931635,7.6335916 0 0 1 7.39317,7.6335 7.3931635,7.6335916 0 0 1 -7.39317,7.6336 7.3931635,7.6335916 0 0 1 -7.39316,-7.6336 7.3931635,7.6335916 0 0 1 7.39316,-7.6335 z" />
    <path
       id="path2660"
       style="fill-opacity:0.77777779;stroke-width:0.480856;fill:#ffffff"
       inkscape:highlight-color="#d78551"
       d="m -334.74558,1041.9004 0.005,75.1591 c 1.6325,-6.382 4.19975,-11.5741 8.24408,-15.5442 2.94563,-1.4918 7.60902,-0.9347 10.81739,1.5355 1.55817,3.5765 3.31887,7.9845 -0.12021,12.8103 3.25179,-0.218 6.54407,-0.7066 8.7512,6.1272 -1.35015,3.7177 -4.5352,6.5579 -9.55043,5.7721 l -10.65212,-2.8165 c -2.68327,9.7595 -0.52144,15.9864 3.55194,20.5021 l 16.84405,11.1846 c 3.04104,-3.5669 5.58751,-7.2134 11.27007,-4.1765 1.89784,3.9462 2.02522,6.4005 -2.49535,11.1489 -4.42773,2.1774 -8.38238,0.8064 -12.28064,-0.987 0.12522,5.3448 0.14671,10.6896 2.09716,16.0345 8.06131,5.7392 10.36399,10.2721 12.92585,15.4944 l 3.63272,8.0327 c 1.05611,3.5748 2.24137,7.1062 4.88276,10.1525 2.19939,-2.3267 3.259,-4.8819 4.13142,-7.4739 1.01273,-4.0652 1.71829,-5.9748 2.47472,-8.246 1.95993,-4.1243 2.5459,-8.7661 6.31216,-12.1162 3.29891,-3.1616 6.23877,-6.3232 9.29028,-9.4847 2.616,-3.7072 2.04402,-8.5387 1.72623,-12.9794 -4.30689,2.0348 -8.3293,3.8344 -12.92114,1.282 -5.49753,-7.8758 -1.60274,-10.9786 -0.14276,-10.8127 1.99507,-0.9534 6.36345,1.6315 10.66899,1.39 7.97539,-4.2588 13.38862,-10.795 19.02763,-17.1306 1.29186,-5.4592 -0.88771,-9.0241 -2.40145,-12.953 -6.79252,3.0173 -12.94883,5.4356 -17.65083,1.3975 -3.44303,-7.0466 1.91746,-10.1615 7.813,-12.6291 -2.39626,-14.328 5.56215,-13.189 8.73994,-11.0747 5.0777,3.8031 6.63851,10.9098 8.1107,15.5734 l 0.005,-75.1723 z m 47.18401,85.3999 a 7.3931635,7.6335916 0 0 1 7.39316,7.6335 7.3931635,7.6335916 0 0 1 -7.39316,7.6336 7.3931635,7.6335916 0 0 1 -7.39316,-7.6336 7.3931635,7.6335916 0 0 1 7.39316,-7.6335 z" />
    <path
       id="path2662"
       style="fill-opacity:0.77777779;stroke-width:0.480856;fill:#ffffff"
       inkscape:highlight-color="#d78551"
       d="m -241.47944,1041.9004 0.005,75.1591 c 1.6325,-6.382 4.19975,-11.5741 8.24408,-15.5442 2.94563,-1.4918 7.60902,-0.9347 10.81739,1.5355 1.55817,3.5765 3.31887,7.9845 -0.12021,12.8103 3.25179,-0.218 6.54407,-0.7066 8.7512,6.1272 -1.35015,3.7177 -4.5352,6.5579 -9.55043,5.7721 l -10.65212,-2.8165 c -2.68327,9.7595 -0.52144,15.9864 3.55194,20.5021 l 16.84406,11.1846 c 3.04103,-3.5669 5.5875,-7.2134 11.27006,-4.1765 1.89784,3.9462 2.02522,6.4005 -2.49535,11.1489 -4.42773,2.1774 -8.38238,0.8064 -12.28064,-0.987 0.12522,5.3448 0.14671,10.6896 2.09716,16.0345 8.06131,5.7392 10.36399,10.2721 12.92585,15.4944 l 3.63272,8.0327 c 1.05611,3.5748 2.24137,7.1062 4.88276,10.1525 2.19939,-2.3267 3.259,-4.8819 4.13142,-7.4739 1.01273,-4.0652 1.71829,-5.9748 2.47473,-8.246 1.95992,-4.1243 2.54589,-8.7661 6.31215,-12.1162 3.29891,-3.1616 6.23877,-6.3232 9.29028,-9.4847 2.616,-3.7072 2.04402,-8.5387 1.72623,-12.9794 -4.30689,2.0348 -8.3293,3.8344 -12.92114,1.282 -5.49753,-7.8758 -1.60274,-10.9786 -0.14276,-10.8127 1.99507,-0.9534 6.36345,1.6315 10.66899,1.39 7.97539,-4.2588 13.38863,-10.795 19.02763,-17.1306 1.29186,-5.4592 -0.88771,-9.0241 -2.40145,-12.953 -6.79252,3.0173 -12.94883,5.4356 -17.65083,1.3975 -3.44303,-7.0466 1.91746,-10.1615 7.813,-12.6291 -2.39625,-14.328 5.56215,-13.189 8.73994,-11.0747 5.0777,3.8031 6.63851,10.9098 8.1107,15.5734 l 0.005,-75.1723 z m 47.18401,85.3999 a 7.3931635,7.6335916 0 0 1 7.39316,7.6335 7.3931635,7.6335916 0 0 1 -7.39316,7.6336 7.3931635,7.6335916 0 0 1 -7.39316,-7.6336 7.3931635,7.6335916 0 0 1 7.39316,-7.6335 z" />
    <path
       id="path2664"
       style="fill-opacity:0.77777779;stroke-width:0.480856;fill:#ffffff"
       inkscape:highlight-color="#d78551"
       d="m -148.38593,1041.9004 0.005,75.1591 c 1.63251,-6.382 4.19975,-11.5741 8.24409,-15.5442 2.94563,-1.4918 7.60902,-0.9347 10.81739,1.5355 1.55816,3.5765 3.31887,7.9845 -0.12022,12.8103 3.25179,-0.218 6.54407,-0.7066 8.7512,6.1272 -1.35015,3.7177 -4.5352,6.5579 -9.55043,5.7721 l -10.65212,-2.8165 c -2.68327,9.7595 -0.52144,15.9864 3.55194,20.5021 l 16.84406,11.1846 c 3.04103,-3.5669 5.5875,-7.2134 11.27006,-4.1765 1.89785,3.9462 2.02523,6.4005 -2.49535,11.1489 -4.42772,2.1774 -8.38238,0.8064 -12.28063,-0.987 0.12521,5.3448 0.14671,10.6896 2.09715,16.0345 8.06132,5.7392 10.36399,10.2721 12.92585,15.4944 l 3.63272,8.0327 c 1.05611,3.5748 2.24137,7.1062 4.88276,10.1525 2.19939,-2.3267 3.259005,-4.8819 4.131422,-7.4739 1.012731,-4.0652 1.718292,-5.9748 2.474726,-8.246 1.959922,-4.1243 2.545893,-8.7661 6.312151,-12.1162 3.298914,-3.1616 6.238772,-6.3232 9.290286,-9.4847 2.616001,-3.7072 2.044023,-8.5387 1.726225,-12.9794 -4.306884,2.0348 -8.329294,3.8344 -12.921134,1.282 -5.497532,-7.8758 -1.602742,-10.9786 -0.142766,-10.8127 1.995072,-0.9534 6.363458,1.6315 10.668996,1.39 7.975384,-4.2588 13.388622,-10.795 19.027623,-17.1306 1.291868,-5.4592 -0.887709,-9.0241 -2.401444,-12.953 -6.792526,3.0173 -12.948832,5.4356 -17.650835,1.3975 -3.443027,-7.0466 1.917462,-10.1615 7.812999,-12.6291 -2.396251,-14.328 5.562159,-13.189 8.739945,-11.0747 5.077697,3.8031 6.638508,10.9098 8.110697,15.5734 l 0.0048,-75.1723 z m 47.18401,85.3999 a 7.3931635,7.6335916 0 0 1 7.393167,7.6335 7.3931635,7.6335916 0 0 1 -7.393167,7.6336 7.3931635,7.6335916 0 0 1 -7.39316,-7.6336 7.3931635,7.6335916 0 0 1 7.39316,-7.6335 z" />
    <path
       id="path2666"
       style="fill-opacity:0.77777779;stroke-width:0.480856;fill:#ffffff"
       inkscape:highlight-color="#d78551"
       d="m -1731.375,1041.9004 v 75.1591 c 1.6325,-6.382 4.1998,-11.5741 8.2441,-15.5442 2.9456,-1.4918 7.609,-0.9347 10.8174,1.5355 1.5581,3.5765 3.3189,7.9845 -0.1202,12.8103 3.2518,-0.218 6.544,-0.7066 8.7512,6.1272 -1.3502,3.7177 -4.5352,6.5579 -9.5505,5.7721 l -10.6521,-2.8165 c -2.6833,9.7595 -0.5214,15.9864 3.552,20.5021 l 16.844,11.1846 c 3.041,-3.5669 5.5875,-7.2134 11.2701,-4.1765 1.8978,3.9462 2.0252,6.4005 -2.4954,11.1489 -4.4277,2.1774 -8.3824,0.8064 -12.2806,-0.987 0.1252,5.3448 0.1467,10.6896 2.0972,16.0345 8.0613,5.7392 10.3639,10.2721 12.9258,15.4944 l 3.6327,8.0327 c 1.0561,3.5748 2.2414,7.1062 4.8828,10.1525 2.1994,-2.3267 3.259,-4.8819 4.1314,-7.4739 1.0127,-4.0652 1.7183,-5.9748 2.4747,-8.246 1.9599,-4.1243 2.5459,-8.7661 6.3122,-12.1162 3.2989,-3.1616 6.2387,-6.3232 9.2903,-9.4847 2.616,-3.7072 2.044,-8.5387 1.7262,-12.9794 -4.3069,2.0348 -8.3293,3.8344 -12.9211,1.282 -5.4976,-7.8758 -1.6028,-10.9786 -0.1428,-10.8127 1.9951,-0.9534 6.3634,1.6315 10.669,1.39 7.9754,-4.2588 13.3886,-10.795 19.0276,-17.1306 1.2919,-5.4592 -0.8877,-9.0241 -2.4014,-12.953 -6.7926,3.0173 -12.9489,5.4356 -17.6509,1.3975 -3.443,-7.0466 1.9175,-10.1615 7.813,-12.6291 -2.3962,-14.328 5.5622,-13.189 8.74,-11.0747 5.0777,3.8031 6.6385,10.9098 8.1107,15.5734 v -75.1723 z m 47.184,85.3999 a 7.3931635,7.6335916 0 0 1 7.3932,7.6335 7.3931635,7.6335916 0 0 1 -7.3932,7.6336 7.3931635,7.6335916 0 0 1 -7.3932,-7.6336 7.3931635,7.6335916 0 0 1 7.3932,-7.6335 z" />
    <path
       id="path2668"
       style="fill-opacity:0.77777779;stroke-width:0.480856;fill:#ffffff"
       inkscape:highlight-color="#d78551"
       d="m -1638.2789,1041.9004 v 75.1591 c 1.6325,-6.382 4.1998,-11.5741 8.2441,-15.5442 2.9456,-1.4918 7.609,-0.9347 10.8174,1.5355 1.5582,3.5765 3.3189,7.9845 -0.1202,12.8103 3.2518,-0.218 6.544,-0.7066 8.7512,6.1272 -1.3502,3.7177 -4.5352,6.5579 -9.5505,5.7721 l -10.6521,-2.8165 c -2.6832,9.7595 -0.5214,15.9864 3.552,20.5021 l 16.844,11.1846 c 3.0411,-3.5669 5.5875,-7.2134 11.2701,-4.1765 1.8978,3.9462 2.0252,6.4005 -2.4954,11.1489 -4.4277,2.1774 -8.3823,0.8064 -12.2806,-0.987 0.1252,5.3448 0.1467,10.6896 2.0972,16.0345 8.0613,5.7392 10.3639,10.2721 12.9258,15.4944 l 3.6327,8.0327 c 1.0561,3.5748 2.2414,7.1062 4.8828,10.1525 2.1994,-2.3267 3.259,-4.8819 4.1314,-7.4739 1.0127,-4.0652 1.7183,-5.9748 2.4747,-8.246 1.96,-4.1243 2.5459,-8.7661 6.3122,-12.1162 3.2989,-3.1616 6.2388,-6.3232 9.2903,-9.4847 2.616,-3.7072 2.044,-8.5387 1.7262,-12.9794 -4.3069,2.0348 -8.3293,3.8344 -12.9211,1.282 -5.4976,-7.8758 -1.6028,-10.9786 -0.1428,-10.8127 1.9951,-0.9534 6.3635,1.6315 10.669,1.39 7.9754,-4.2588 13.3886,-10.795 19.0276,-17.1306 1.2919,-5.4592 -0.8877,-9.0241 -2.4014,-12.953 -6.7926,3.0173 -12.9489,5.4356 -17.6509,1.3975 -3.443,-7.0466 1.9175,-10.1615 7.813,-12.6291 -2.3962,-14.328 5.5622,-13.189 8.74,-11.0747 5.0777,3.8031 6.6385,10.9098 8.1107,15.5734 v -75.1723 z m 47.184,85.3999 a 7.3931635,7.6335916 0 0 1 7.3932,7.6335 7.3931635,7.6335916 0 0 1 -7.3932,7.6336 7.3931635,7.6335916 0 0 1 -7.3931,-7.6336 7.3931635,7.6335916 0 0 1 7.3931,-7.6335 z" />
    <path
       id="path2670"
       style="fill-opacity:0.77777779;stroke-width:0.480856;fill:#ffffff"
       inkscape:highlight-color="#d78551"
       d="m -1545.1854,1041.9004 v 75.1591 c 1.6325,-6.382 4.1998,-11.5741 8.2441,-15.5442 2.9456,-1.4918 7.609,-0.9347 10.8174,1.5355 1.5582,3.5765 3.3189,7.9845 -0.1202,12.8103 3.2518,-0.218 6.5441,-0.7066 8.7512,6.1272 -1.3502,3.7177 -4.5352,6.5579 -9.5504,5.7721 l -10.6522,-2.8165 c -2.6832,9.7595 -0.5214,15.9864 3.552,20.5021 l 16.844,11.1846 c 3.0411,-3.5669 5.5875,-7.2134 11.2701,-4.1765 1.8978,3.9462 2.0252,6.4005 -2.4954,11.1489 -4.4277,2.1774 -8.3823,0.8064 -12.2806,-0.987 0.1252,5.3448 0.1467,10.6896 2.0972,16.0345 8.0613,5.7392 10.364,10.2721 12.9258,15.4944 l 3.6327,8.0327 c 1.0561,3.5748 2.2414,7.1062 4.8828,10.1525 2.1994,-2.3267 3.259,-4.8819 4.1314,-7.4739 1.0128,-4.0652 1.7183,-5.9748 2.4747,-8.246 1.96,-4.1243 2.5459,-8.7661 6.3122,-12.1162 3.2989,-3.1616 6.2388,-6.3232 9.2903,-9.4847 2.616,-3.7072 2.044,-8.5387 1.7262,-12.9794 -4.3069,2.0348 -8.3293,3.8344 -12.9211,1.282 -5.4976,-7.8758 -1.6028,-10.9786 -0.1428,-10.8127 1.9951,-0.9534 6.3635,1.6315 10.669,1.39 7.9754,-4.2588 13.3886,-10.795 19.0276,-17.1306 1.2919,-5.4592 -0.8877,-9.0241 -2.4014,-12.953 -6.7925,3.0173 -12.9488,5.4356 -17.6509,1.3975 -3.443,-7.0466 1.9175,-10.1615 7.813,-12.6291 -2.3962,-14.328 5.5622,-13.189 8.74,-11.0747 5.0777,3.8031 6.6385,10.9098 8.1107,15.5734 v -75.1723 z m 47.184,85.3999 a 7.3931635,7.6335916 0 0 1 7.3932,7.6335 7.3931635,7.6335916 0 0 1 -7.3932,7.6336 7.3931635,7.6335916 0 0 1 -7.3931,-7.6336 7.3931635,7.6335916 0 0 1 7.3931,-7.6335 z" />
  </g>
</svg>
