<?xml version="1.0" encoding="UTF-8" standalone="no"?><!--Created with Inkscape (http://www.inkscape.org/)--><svg xmlns="http://www.w3.org/2000/svg" width="569.1" height="355.6" viewBox="0 0 150.6 94.1"><path d="M-322 157v356h29v-81c13 10 21 5 29-1 7-20 1-24-3-31l18-3c10-3 17-11 22-23 5 5 11 8 18 10 14 2 26-8 33-22 3-15-7-21-10-25 21-13 30-24 38-35 4 4 9 7 16 10 11 3 18-2 25-7 21-21 8-28 0-37-2 8-2 16-10 21-10 5-16 1-21-6-1-14 6-20 22-19 41 4 81-5 119-35 5-2 10-1 16 1 6 5 7 11 3 18-5 5-11 10-20 4-4-3-8-3-12-3 1 6 0 11 9 19 14 6 24 4 33-3 7-6 8-13 9-20-4-25-16-23-25-28 19-18 39-18 59-12 8 4 15 6 38 31 7 5 15 4 22 3 11-3 15-7 19-12 12-27-1-29-7-41h100v-29Zm29 29h26c-11 8-20 16-26 25zm118 0h25c-4 4-5 9-6 15-6-7-12-11-19-15zm41 0h44l-7 11c-6-2-11-6-26 3-3 3-7 6-13 5-4-1-4-3-4-6 3-3 6-4 11-4 0-4-2-6-5-9zm105 0h17l6 10-6 2c-10-4-12-8-17-12zm32 0h27L8 198c0-4-1-8-5-12Zm70 0h43c-4 3-9 6-6 12 6-5 10-5 15-5 13 4 13 9 13 15-1 8-6 12-12 12-13-2-18-12-26-18-6-6-11-8-16-10zm-290 1c8 0 15 2 17 3-7 1-15 3-15 11 4 3 8 7 10 11 0 2-1 4-3 4l-17-8c-9-1-4 4-1 9 5 12 0 12-6 11-11-13-15-26-3-36 6-4 12-5 18-5zm156 2c13 0 18 2 24 16-5-5-11-2-17-1 2-8-5-12-13-15h6zm-185 3c-6 7-5 12-9 19-2 1-4 3-8-1l-1-8c6-6 12-8 18-10zm52 0c8 1 13 5 18 9-5 0-8-1-18 3-3 1-6 0-9-3 1-4 5-6 9-9zm118 6c3 1 7 3 7 10-2 4-5 8-13 9-5-9 0-18 6-19zm54 4c6 3 12 4 19 6-8 5-14 11-19 19zm-249 4c1 4-1 9 3 14 5 3 10 3 16 1 3 0 7 1 3 6-7 4-15 7-18 14-1 3-3 5 5 5 3-11 8-7 12-2s-1 13-23 11c-5-4-11-9-13-20 2-17 10-22 15-29zm233 2c2 1 3 4 3 9-1 4-3 6-6 7-3-2-6-3-6-10 2-3 5-5 9-6zm-72 3h7c6 18 13 27 22 35h-26l7-9c-15-1-23-5-23-14 0-5 2-7 3-9 3-1 3-3 10-3zm-65 0c15 3 19 15 24 28-4-2-7-5-12-5-7-1-9 7-10 14-5 4-5 1-6-1 1-19-3-22-9-24-3 12 0 13-7 17-6-3-6-8-6-12 2-5 6-9 10-13 4-3 9-4 16-4zm28 5 12 1c0 10 0 21 12 32-3 2-7 2-10 2-8-2-7-7-6-12 0-13-5-16-8-23zm87 4c3 5 7 10 13 13-12 8-26 6-35-9 11 2 16-1 22-4zm-152 23 9 15-9 15h-17l-9-15 9-15Zm-81 2 12 12c3 4 3 9 2 13-5 0-10 0-14-3zm135 1h4c5 5 3 14 3 22-3-6-7-12-13-17 0-4 3-5 6-5zm-23 15h3c7 0 13 2 18 10 3 3 4 7 4 12s-1 12-4 15c-4 5-7 6-9 8 0-7-2-11-7-14-5 0-10 0-14 2-4-2-3-5-1-6 6-2 12-4 15-11 4-5 0-5-1-7-3-1-5 0-9 4-3-1-5-2-6-6 2-5 7-7 11-7zm-83 3 3 3c-1 8-2 15 3 22l8-13c2-1 4-3 8 1 1 7 0 15-7 22-8 6-16 9-25 3-11-6-13-16-16-25 4 2 10 8 17 5 4-4 3-11 5-15l4-3zm51 22c8 3 11 4 15 17 0 4 0 9-3 15-4 5-8 9-14 10-10 2-18 0-25-2 6-2 9-5 12-9 1-10-5-11-9-14-1-6 2-5 4-6l11 9c12 3 10-1 13-3 1-4-5-2-9-10-1-5 1-5 5-7zm30 17c3 0 6 1 6 7-4 7-12 11-21 15 5-7 8-14 9-22h6zm-110 0c3 6 5 10 17 20-6 2-12 5-17 10zm45 7c16 1 9 6 0 12-7-1-12-5-18-10l18-2zm-18 26c5 0 10 2 14 4-7 1-10 5-12 12-4-6-12-6-23-3 8-10 14-13 21-13zm58 8c4 0 7 2 10 5 3 6 5 12 0 19-7 5-13 8-22 0-7-8-4-13 0-18 5-5 9-6 12-6zm-35 5c5 0 5 7 4 16-7-2-11-6-13-10 1-4 4-5 8-6h1zm-44 7c10 3 15 6 13 10-1 7-5 8-12 5-3-9-3-12-1-15zm30 10c6 3 12 4 18 3-5 12-16 18-33 16 11-4 13-11 15-19zm-36 21c11 7 21 14 21 27 0 6-2 10-8 11-4-2-9-5-3-12-4-1-7-1-10 1z" style="fill:#fffffe;fill-opacity:.990942" transform="matrix(.2646 0 0 .2646 85 -42)"/></svg>